<?xml version="1.0" encoding="UTF-8" standalone="no"?><!DOCTYPE svg PUBLIC "-//W3C//DTD SVG 1.1//EN" "http://www.w3.org/Graphics/SVG/1.1/DTD/svg11.dtd"><svg width="100%" height="100%" viewBox="0 0 763 196" version="1.1" xmlns="http://www.w3.org/2000/svg" xmlns:xlink="http://www.w3.org/1999/xlink" xml:space="preserve" xmlns:serif="http://www.serif.com/" style="fill-rule:evenodd;clip-rule:evenodd;stroke-linejoin:round;stroke-miterlimit:2;"><g transform="matrix(125,0,0,125,712.589518,143.75)"></g><text x="141.667px" y="143.75px" style="font-family:'Roboto-BlackItalic', 'Roboto';font-weight:900;font-style:italic;font-size:125px;fill:#fff;">GhostCast</text><g><path d="M91.696,173.787c-2.372,-0.638 -6.027,-2.414 -9.124,-4.427c-2.245,-1.462 -2.414,-1.514 -2.831,-0.921c-0.707,1.014 -2.365,1.517 -4.431,1.345c-2.179,-0.179 -3.079,-0.824 -4,-2.858l-0.624,-1.379l-4.069,0.117c-6.358,0.183 -10.254,-0.99 -14.402,-4.331c-8.186,-6.6 -12.196,-18.175 -14.085,-40.632l-0.438,-5.189l-2.7,-2.569c-3.424,-3.252 -7.162,-6.124 -10.123,-7.775c-8.817,-4.913 -11.713,-6.972 -15.809,-11.244c-5.072,-5.293 -7.151,-11.158 -5.375,-15.175c0.945,-2.141 2.755,-3.448 5.024,-3.638c2.324,-0.193 3.551,0.345 6.741,2.962c4.489,3.683 9.555,5.793 14.813,6.172l2.886,0.207l-0.203,-1c-1.383,-6.803 -1.748,-18.057 -0.762,-23.588c2.493,-13.996 11.103,-25.795 23.126,-31.708c6.386,-3.141 10.565,-4.134 18.447,-4.389c8.565,-0.276 14.478,0.972 21.019,4.438c4.424,2.345 7.206,4.393 10.506,7.724c7.041,7.113 10.385,14.02 14.382,29.712c0.783,3.083 1.593,5.603 1.796,5.603c0.741,0 7.379,-3.576 10.568,-5.693c1.8,-1.196 4.207,-3.058 5.344,-4.141c2.262,-2.145 4.248,-3.248 5.875,-3.262c1.645,-0.01 4,1.376 5.155,3.041c0.917,1.321 1.052,1.831 1.162,4.417c0.103,2.5 -0.014,3.31 -0.817,5.575c-1.748,4.931 -3.972,8.441 -9.682,15.282c-1.641,1.965 -3.369,4.4 -3.841,5.41c-2.793,5.975 1.586,13.368 16.199,27.343c7.213,6.9 8.017,8.206 8.017,13.058c0,4.458 -0.728,5.879 -5.741,11.234c-4.393,4.689 -5.772,6.669 -8.368,12.023c-2.183,4.496 -3.9,6.575 -6.641,8.027c-4.255,2.258 -8.262,2.314 -15.282,0.214c-8.127,-2.431 -10.865,-1.765 -15.164,3.686c-2.989,3.793 -5.472,5.544 -8.972,6.341c-2.9,0.662 -5.089,0.659 -7.575,-0.01Zm9.472,-3.665c1.869,-0.972 3.81,-2.865 5.813,-5.672c3.558,-4.979 9.082,-6.086 17.288,-3.462c4.745,1.514 7.062,1.821 9.696,1.276c2.614,-0.538 4.141,-1.338 5.686,-2.983c1.348,-1.427 1.538,-1.748 3.914,-6.665c1.896,-3.924 3.42,-6.013 8.117,-11.13c4.072,-4.431 5.165,-6.386 5.169,-9.23c0.007,-3.269 -0.89,-4.52 -8.982,-12.568c-9.568,-9.513 -13.168,-13.961 -15.189,-18.768c-1.307,-3.117 -1.541,-5.258 -0.862,-7.913c0.676,-2.638 1.693,-4.413 4.141,-7.241c7.096,-8.196 10.896,-15.092 10.896,-19.778c0,-4.058 -3.327,-6.158 -6.051,-3.817c-4.824,4.138 -6.313,5.251 -9.81,7.344c-3.738,2.234 -8.106,4.413 -11.803,5.889l-1.634,0.652l-0.521,-1.01c-0.734,-1.417 -0.669,-1.648 0.534,-1.914c0.762,-0.166 1.003,-0.379 0.855,-0.759c-0.11,-0.293 -1.138,-4.117 -2.283,-8.503c-1.145,-4.382 -2.634,-9.368 -3.31,-11.075c-4.665,-11.803 -12.978,-20.116 -24.102,-24.098c-9.965,-3.569 -22.319,-2.827 -32.198,1.938c-8.244,3.976 -15.985,12.685 -19.312,21.733c-3.62,9.841 -3.586,19.288 0.148,39.046c1.89,10.006 2.331,13.172 3.131,22.412c2.358,27.281 4.748,36.194 11.665,43.545c3.734,3.965 7.12,5.244 13.885,5.244l4.579,0l0.097,-8.048c0.055,-4.427 0.052,-8.303 -0.01,-8.61c-0.059,-0.307 -0.945,-1.038 -1.969,-1.621c-3.458,-1.983 -6.186,-5.913 -6.641,-9.582l-0.245,-1.965l-2.327,-0.103c-2.317,-0.1 -2.327,-0.107 -2.327,-1.103c0,-1 0.01,-1.003 2.327,-1.103l2.327,-0.103l0.103,-2.155c0.1,-2.093 -0.031,-2.362 -1.062,-2.193c-0.148,0.024 -0.731,-0.193 -1.293,-0.486l-1.024,-0.528l0,-3.279c0,-2.593 0.107,-3.317 0.517,-3.476c0.403,-0.155 0.517,-0.838 0.517,-3.11l0,-2.91l1.193,-0.5l1.193,-0.497l0.1,-10.261l0.1,-10.258l1.1,-2.317c1.372,-2.9 3.7,-5.213 6.658,-6.617c2.062,-0.979 2.531,-1.065 5.862,-1.065c3.355,0 3.789,0.079 5.938,1.1c2.786,1.317 5.069,3.555 6.586,6.455l1.096,2.1l0.172,10.517c0.172,10.479 0.176,10.517 0.924,10.623c1.217,0.172 1.586,0.969 1.759,3.786c0.09,1.462 0.29,2.82 0.448,3.02c0.159,0.2 0.314,1.724 0.348,3.389c0.066,3.455 -0.314,4.179 -2.2,4.179l-1.107,0l0,4.482l2.327,0.103c2.317,0.1 2.327,0.103 2.327,1.103c0,1 -0.01,1.003 -2.327,1.103l-2.327,0.103l-0.217,1.772c-0.452,3.714 -3.424,8.089 -6.658,9.806l-1.572,0.834l-0.031,5.689c-0.069,12.178 -0.048,13.73 0.172,14.085c0.428,0.697 6.579,4.313 8.996,5.296c2.176,0.879 2.738,0.965 5.689,0.862c2.717,-0.097 3.569,-0.269 5,-1.014Zm-23.791,-2.679c0.131,-0.214 -0.483,-0.341 -1.617,-0.338c-1.31,0.003 -1.683,0.1 -1.314,0.338c0.679,0.438 2.658,0.438 2.931,0Zm1.552,-2.758l0,-4.827l-5.862,0l0,4.827l5.862,0Zm0,-7.241l0,-11.206l-2.931,-0.003l-2.931,-0.007l0,11.216l5.862,0Zm1.81,-14.571c2.352,-1.076 4.42,-3.148 5.651,-5.665c0.862,-1.765 0.931,-2.224 0.955,-6.606l0.031,-4.707l-22.757,0l0,5c0,4.569 0.069,5.134 0.807,6.551c2.9,5.582 9.706,7.996 15.313,5.427Zm10.258,-19.219l0,-3.448l-30.343,0l0,3.448l30.343,0Zm-1.034,-5.862l0,-4.138l-27.929,0l0,4.138l27.929,0Zm-2.827,-16.637l-0.103,-10.43l-1.024,-1.848c-1.159,-2.093 -3.014,-3.82 -5.327,-4.962c-1.303,-0.641 -2.152,-0.776 -4.855,-0.776c-2.941,0 -3.479,0.103 -5.279,1.014c-2.203,1.117 -3.927,2.824 -5.138,5.089c-0.765,1.438 -0.793,1.8 -0.893,11.913l-0.107,10.43l22.833,0l-0.107,-10.43Zm-50.245,4.958c-0.207,-1.638 -1.024,-6.496 -1.817,-10.799l-1.445,-7.824l-2.262,-0.2c-6.251,-0.545 -12.334,-2.772 -16.399,-6.003c-3.62,-2.872 -4.365,-3.303 -5.717,-3.303c-2.769,0 -3.945,2.465 -2.924,6.138c1.738,6.248 6.71,10.961 19.157,18.15c3.914,2.262 6.193,3.91 10.172,7.365l1.379,1.196l0.114,-0.872c0.062,-0.479 -0.055,-2.21 -0.259,-3.848Zm12.73,-28.888c-1.003,-0.4 -2.486,-2.034 -3.31,-3.651c-3.403,-6.669 -0.303,-18.164 4.682,-17.368c5.917,0.945 7.924,14.023 3.017,19.664c-0.865,0.996 -1.424,1.314 -2.493,1.421c-0.759,0.076 -1.61,0.045 -1.896,-0.066Zm32.387,-4.424c-0.49,-0.265 -1.296,-1.072 -1.793,-1.796c-1.665,-2.407 -2.076,-3.858 -2.241,-7.865c-0.131,-3.238 -0.045,-4.114 0.59,-5.982c0.914,-2.703 1.841,-3.993 3.4,-4.734c4.61,-2.186 9.151,6.227 7.52,13.944c-0.586,2.786 -1.783,5.124 -3.186,6.231c-1.059,0.828 -2.972,0.921 -4.289,0.203Z" style="fill:#fff;fill-rule:nonzero;"/></g></svg>