<?xml version="1.0" encoding="UTF-8" standalone="no"?><!DOCTYPE svg PUBLIC "-//W3C//DTD SVG 1.1//EN" "http://www.w3.org/Graphics/SVG/1.1/DTD/svg11.dtd"><svg width="100%" height="100%" viewBox="0 0 96 113" version="1.1" xmlns="http://www.w3.org/2000/svg" xmlns:xlink="http://www.w3.org/1999/xlink" xml:space="preserve" xmlns:serif="http://www.serif.com/" style="fill-rule:evenodd;clip-rule:evenodd;stroke-linejoin:round;stroke-miterlimit:2;"><path d="M53.909,97.452c-1.361,-0.366 -3.458,-1.385 -5.234,-2.54c-1.288,-0.839 -1.385,-0.868 -1.624,-0.528c-0.406,0.582 -1.357,0.87 -2.542,0.771c-1.25,-0.103 -1.766,-0.473 -2.295,-1.64l-0.358,-0.791l-2.334,0.067c-3.648,0.105 -5.883,-0.568 -8.262,-2.484c-4.696,-3.786 -6.997,-10.427 -8.081,-23.31l-0.251,-2.977l-1.549,-1.474c-1.964,-1.865 -4.108,-3.513 -5.808,-4.461c-5.058,-2.819 -6.72,-4 -9.07,-6.451c-2.91,-3.036 -4.103,-6.401 -3.084,-8.706c0.542,-1.228 1.58,-1.978 2.882,-2.087c1.333,-0.111 2.037,0.198 3.867,1.699c2.575,2.113 5.481,3.323 8.498,3.541l1.656,0.119l-0.117,-0.574c-0.793,-3.903 -1.003,-10.359 -0.437,-13.532c1.43,-8.029 6.369,-14.798 13.267,-18.191c3.663,-1.802 6.061,-2.372 10.583,-2.518c4.914,-0.158 8.306,0.558 12.058,2.546c2.538,1.345 4.134,2.52 6.027,4.431c4.039,4.081 5.958,8.043 8.251,17.045c0.449,1.768 0.914,3.214 1.031,3.214c0.425,0 4.233,-2.051 6.063,-3.266c1.033,-0.686 2.413,-1.755 3.066,-2.376c1.298,-1.23 2.437,-1.863 3.371,-1.871c0.944,-0.006 2.295,0.789 2.957,1.745c0.526,0.758 0.603,1.05 0.667,2.534c0.059,1.434 -0.008,1.899 -0.469,3.199c-1.003,2.829 -2.279,4.842 -5.554,8.767c-0.942,1.128 -1.933,2.524 -2.204,3.104c-1.602,3.428 0.91,7.669 9.293,15.686c4.138,3.958 4.599,4.708 4.599,7.491c0,2.558 -0.417,3.373 -3.294,6.445c-2.52,2.69 -3.311,3.826 -4.801,6.898c-1.252,2.579 -2.237,3.772 -3.81,4.605c-2.441,1.296 -4.74,1.327 -8.767,0.123c-4.662,-1.395 -6.233,-1.013 -8.7,2.115c-1.715,2.176 -3.139,3.181 -5.147,3.638c-1.664,0.38 -2.92,0.378 -4.346,-0.006Zm5.434,-2.103c1.072,-0.558 2.186,-1.644 3.335,-3.254c2.041,-2.856 5.21,-3.491 9.918,-1.986c2.722,0.868 4.051,1.044 5.562,0.732c1.499,-0.309 2.376,-0.767 3.262,-1.711c0.773,-0.819 0.882,-1.003 2.245,-3.824c1.088,-2.251 1.962,-3.45 4.656,-6.385c2.336,-2.542 2.963,-3.663 2.965,-5.295c0.004,-1.875 -0.51,-2.593 -5.153,-7.21c-5.489,-5.458 -7.554,-8.009 -8.713,-10.767c-0.75,-1.788 -0.884,-3.017 -0.495,-4.54c0.388,-1.513 0.971,-2.532 2.376,-4.154c4.071,-4.702 6.251,-8.658 6.251,-11.346c0,-2.328 -1.909,-3.533 -3.472,-2.19c-2.767,2.374 -3.622,3.013 -5.628,4.213c-2.144,1.282 -4.65,2.532 -6.771,3.379l-0.938,0.374l-0.299,-0.58c-0.421,-0.813 -0.384,-0.946 0.307,-1.098c0.437,-0.095 0.576,-0.218 0.491,-0.435c-0.063,-0.168 -0.653,-2.362 -1.309,-4.878c-0.657,-2.514 -1.511,-5.374 -1.899,-6.354c-2.676,-6.771 -7.446,-11.54 -13.827,-13.825c-5.717,-2.047 -12.804,-1.622 -18.471,1.112c-4.73,2.281 -9.17,7.277 -11.079,12.468c-2.077,5.645 -2.057,11.065 0.085,22.4c1.084,5.74 1.337,7.556 1.796,12.858c1.353,15.651 2.724,20.764 6.692,24.981c2.142,2.275 4.085,3.009 7.966,3.009l2.627,0l0.055,-4.617c0.032,-2.54 0.03,-4.763 -0.006,-4.939c-0.034,-0.176 -0.542,-0.595 -1.129,-0.93c-1.984,-1.137 -3.549,-3.392 -3.81,-5.497l-0.14,-1.128l-1.335,-0.059c-1.329,-0.057 -1.335,-0.061 -1.335,-0.633c0,-0.574 0.006,-0.576 1.335,-0.633l1.335,-0.059l0.059,-1.236c0.057,-1.201 -0.018,-1.355 -0.609,-1.258c-0.085,0.014 -0.419,-0.111 -0.742,-0.279l-0.587,-0.303l0,-1.881c0,-1.488 0.061,-1.903 0.297,-1.994c0.231,-0.089 0.297,-0.481 0.297,-1.784l0,-1.67l0.684,-0.287l0.684,-0.285l0.057,-5.887l0.057,-5.885l0.631,-1.329c0.787,-1.664 2.122,-2.991 3.82,-3.796c1.183,-0.562 1.452,-0.611 3.363,-0.611c1.925,0 2.174,0.045 3.406,0.631c1.598,0.756 2.908,2.039 3.778,3.703l0.629,1.205l0.099,6.033c0.099,6.011 0.101,6.033 0.53,6.095c0.698,0.099 0.91,0.556 1.009,2.172c0.051,0.839 0.166,1.618 0.257,1.733c0.091,0.115 0.18,0.989 0.2,1.944c0.038,1.982 -0.18,2.397 -1.262,2.397l-0.635,0l0,2.572l1.335,0.059c1.329,0.057 1.335,0.059 1.335,0.633c0,0.574 -0.006,0.576 -1.335,0.633l-1.335,0.059l-0.125,1.017c-0.259,2.13 -1.964,4.641 -3.82,5.626l-0.902,0.479l-0.018,3.264c-0.04,6.987 -0.028,7.877 0.099,8.081c0.245,0.4 3.774,2.475 5.161,3.038c1.248,0.504 1.571,0.554 3.264,0.495c1.559,-0.055 2.047,-0.154 2.868,-0.582Zm-13.649,-1.537c0.075,-0.123 -0.277,-0.196 -0.928,-0.194c-0.752,0.002 -0.965,0.057 -0.754,0.194c0.39,0.251 1.525,0.251 1.681,0Zm0.89,-1.582l0,-2.769l-3.363,0l0,2.769l3.363,0Zm0,-4.154l0,-6.429l-1.681,-0.002l-1.681,-0.004l0,6.435l3.363,0Zm1.038,-8.359c1.349,-0.617 2.536,-1.806 3.242,-3.25c0.495,-1.013 0.534,-1.276 0.548,-3.79l0.018,-2.7l-13.055,0l0,2.868c0,2.621 0.04,2.945 0.463,3.758c1.664,3.203 5.568,4.587 8.785,3.114Zm5.885,-11.026l0,-1.978l-17.407,0l0,1.978l17.407,0Zm-0.593,-3.363l0,-2.374l-16.023,0l0,2.374l16.023,0Zm-1.622,-9.544l-0.059,-5.984l-0.587,-1.06c-0.665,-1.201 -1.729,-2.192 -3.056,-2.846c-0.748,-0.368 -1.234,-0.445 -2.785,-0.445c-1.687,0 -1.996,0.059 -3.028,0.582c-1.264,0.641 -2.253,1.62 -2.947,2.92c-0.439,0.825 -0.455,1.033 -0.512,6.834l-0.061,5.984l13.099,0l-0.061,-5.984Zm-28.825,2.844c-0.119,-0.94 -0.587,-3.727 -1.042,-6.195l-0.829,-4.488l-1.298,-0.115c-3.586,-0.313 -7.076,-1.59 -9.408,-3.444c-2.077,-1.648 -2.504,-1.895 -3.28,-1.895c-1.588,0 -2.263,1.414 -1.677,3.521c0.997,3.584 3.849,6.288 10.99,10.413c2.245,1.298 3.553,2.243 5.835,4.225l0.791,0.686l0.065,-0.5c0.036,-0.275 -0.032,-1.268 -0.148,-2.208Zm7.303,-16.572c-0.576,-0.229 -1.426,-1.167 -1.899,-2.095c-1.952,-3.826 -0.174,-10.421 2.686,-9.964c3.394,0.542 4.546,8.045 1.731,11.281c-0.497,0.572 -0.817,0.754 -1.43,0.815c-0.435,0.044 -0.924,0.026 -1.088,-0.038Zm18.58,-2.538c-0.281,-0.152 -0.744,-0.615 -1.029,-1.031c-0.955,-1.381 -1.191,-2.213 -1.286,-4.512c-0.075,-1.857 -0.026,-2.36 0.338,-3.432c0.524,-1.551 1.056,-2.291 1.95,-2.716c2.645,-1.254 5.25,3.572 4.314,7.999c-0.336,1.598 -1.023,2.939 -1.828,3.574c-0.607,0.475 -1.705,0.528 -2.461,0.117Z" style="fill:#fff;fill-rule:nonzero;"/></svg>